<svg t="1571913054584" class="icon" viewBox="0 0 1024 1024" version="1.1" xmlns="http://www.w3.org/2000/svg" p-id="3445" width="20" height="20"><path d="M512.697383 64.46829c-246.973928 0-447.184809 200.211904-447.184809 447.184809s200.210881 447.184809 447.184809 447.184809 447.184809-200.210881 447.184809-447.184809S759.670288 64.46829 512.697383 64.46829zM475.066321 301.498752c0-19.966751 15.947204-36.18513 35.622312-36.18513 19.663852 0 35.611056 16.21838 35.611056 36.18513l0 272.815479c0 19.983123-15.947204 36.184107-35.611056 36.184107-19.675108 0-35.622312-16.200984-35.622312-36.184107L475.066321 301.498752zM510.688633 758.906389c-28.022217 0-50.741661-23.085788-50.741661-51.556213s22.719444-51.55519 50.741661-51.55519c28.030403 0 50.738591 23.084765 50.738591 51.55519S538.718013 758.906389 510.688633 758.906389z" p-id="3446" fill="#e6a23c"></path></svg>